/* XPM */
static char *_382172a4bd0422bc3a9691980e183e35Un2QXODdR76IMM6[] = {
/* columns rows colors chars-per-pixel */
"64 48 117 2 ",
"   c black",
".  c None",
"X  c #010101",
"o  c #BB7D04",
"O  c #BB7D04",
"+  c #020202",
"@  c #010101",
"#  c #010101",
"$  c #49AFF7",
"%  c #49AFF7",
"&  c #BA7C05",
"*  c black",
"=  c #16108F",
"-  c #030404",
";  c #000039",
":  c #FCA203",
">  c #FCA203",
",  c #FCA203",
"<  c #FDA102",
"1  c #3878F8",
"2  c #000039",
"3  c #010101",
"4  c #BB7D04",
"5  c #030201",
"6  c #48ACF4",
"7  c #030405",
"8  c #FAA004",
"9  c #FDA102",
"0  c #BC7E03",
"q  c #DF8F03",
"w  c #030404",
"e  c #3777F6",
"r  c #020202",
"t  c #3878F7",
"y  c #020304",
"u  c #FBA104",
"i  c #E3DD75",
"p  c #E4DC74",
"a  c #FEA201",
"s  c #020101",
"d  c black",
"f  c #020303",
"g  c #49AFF7",
"h  c #3979F7",
"j  c #48ADF5",
"k  c #BE8001",
"l  c #B97B06",
"z  c #BD7F02",
"x  c #BA7C03",
"c  c #150F8E",
"v  c #17118E",
"b  c #0D0878",
"n  c #16108F",
"m  c #1D15AD",
"M  c #130D8E",
"N  c #140E8F",
"B  c #170FA4",
"V  c #0E0979",
"C  c #48AEF6",
"Z  c #1E16AE",
"A  c #1F17AF",
"S  c #040404",
"D  c #BA7E05",
"F  c #171190",
"G  c gray99",
"H  c #FBFBFB",
"J  c #C9890E",
"K  c #CA8A0D",
"L  c #150F90",
"P  c gray1",
"I  c #150F8F",
"U  c #B97D04",
"Y  c #FCA204",
"T  c #FCA203",
"R  c #140E8D",
"E  c #150F8C",
"W  c #855603",
"Q  c #3777F7",
"!  c #E2DE76",
"~  c #000042",
"^  c #3A7AF6",
"/  c #BA7E06",
"(  c #010140",
")  c #C77F03",
"_  c #48AEF7",
"`  c #00003F",
"'  c #000002",
"]  c #000B47",
"[  c #3A78F6",
"{  c #000038",
"}  c #855602",
"|  c #B97B04",
" . c #47AFF7",
".. c #000039",
"X. c #4AAEF6",
"o. c #F70127",
"O. c gray97",
"+. c #3977F7",
"@. c #F991BF",
"#. c #FCA002",
"$. c #FCA003",
"%. c #835402",
"&. c #B10127",
"*. c #835401",
"=. c #FCA001",
"-. c #C77F02",
";. c #C57D03",
":. c #996101",
">. c #000101",
",. c #865703",
"<. c #C67E02",
"1. c #996301",
"2. c #C67E03",
"3. c #000419",
"4. c #FBA102",
"5. c #020138",
"6. c white",
/* pixels */
"                                                                                                                                ",
"                                                                                                                                ",
"                                                                                                                                ",
"                                                                                                                                ",
"                                                                          . . .                   . .                           ",
"                                        X 3 X                           . o O 4 .               . O 4 5                         ",
"                        + + +     @ @ @ 6 6 6 3 X X             # 7 7 . o 8 9 9 0 .           . O q q q 3                       ",
"                    w w e e e r r t t $ $ $ $ $ e e y y y y X X % % % . o u i p a 0 s         . O q q q 3 d                     ",
"                  f $ $ t t t t t t t t g g g g $ t e e e h $ $ j j j . & u i i p a a k r * * O q q q q q 3                     ",
"                  f g g g g t t t t t t t g g g $ t t t t j $ $ $ $ $ . l u i i i p a 9 z x x 0 0 0 q q q 3                     ",
"                    f g g g g g g t t t t t g g g g t t t $ j $ $ $ $ . l u i 9 9 9 9 9 a 9 9 9 9 a 0 0 q 3                     ",
"                      w g g g g g g g g t t $ $ $ g t t t $ $ j $ $ = c v v v v v v v v v v 9 a a v v v v b b b                 ",
"                        w g g g g g g g g t t g g $ $ t t g $ $ j $ n m m m m m m m m m m m M N N B B B B B B V                 ",
"                          w C g g g g g g g t t g g g t t $ g g $ j $ c v m Z Z A Z r r r Z Z Z B B S S B B B b                 ",
"                            - C g g g ; ; ; ; t t g g g t t $ $ g $ r 3 D v F Z Z A r 3 G Z Z Z B B S H B B b                   ",
"                              - w g ; : : : : ; t t g g t t t g $ g r D J K v m Z Z r 3 3 A L n n B r P B I r                   ",
"                                  ; : > > > > : ; t t g g g t t g r U D J Y T v n n L L L L 9 a a L L R E J J 3                 ",
"                                ; W > > > , > > : ; t t g g g g Q r U D J Y T 9 9 a a x ! ! ! x ! ! x T 9 J J 3                 ",
"                                ; W > > : W > > : ; g g t t g ~ ^ r U / J Y Y 9 9 9 a x ! ! ! x ! ! x 9 Y J J 3                 ",
"                                ; W : : : ; W > > : ; g g g ( ) ^ _ r U / J J Y 9 9 9 9 x x x 9 x x 9 Y J J 3                   ",
"                                  ; W W W ; ; > > : ; g g ` ) ) T ^ _ r U D D J J Y T 9 9 9 T T T T Y J J 3                     ",
"                                    ; ; ' ; W > T ; r r ] ) ) T T T ^ _ r U U D D D D D D D D D D D D D 3                       ",
"                                          ; W > , ;     ] ) ) T T T 9 [ _ r r 3 3 3 3 3 3 3 3 3 3 3 3 3                         ",
"                                        ; W W > ;     { ) ) T T T < 9 } ^ _ g g g g g g 4 4 4 | g g  .1                         ",
"                                        ; W > > ;     ..) ) T T T < 9 } 9 ^ _ X.g g g g g o.o.O.g h Q                           ",
"                                      ..T T T ..      { ) ) T T T < 9 W 9 9 ^ h h +.h h h o.@.o.h T 3                           ",
"                                      ..T T T ..      { ) ) T T T < #.W 9 9 9 $.9 %.9 T 9 &.@.&.T T 3                           ",
"                                      ..T T T ..      { ) ) T T T T #.*.$.9 9 =.} -.9 9 9 &.&.&.T T 3                           ",
"                                      ..T T T ..      { ) ) T T T T 9 ;.*.9 9 =.%.9 9 9 9 -.) :.T $.>.                          ",
"                                      ..,.T T ..      { ) ) T T T T T $.;.*.9 } <.9 9 9 9 9 T :.T 1..                           ",
"                                        ..T T T ..    ..) ) ) T T T T T ;.;.*.;.<.9 9 9 9 9 T 2.1..                             ",
"                                        ..W T T T ..2 ..) ) ) ) T T T T T T T T T T 9 9 T T T $.d                               ",
"                                          ..W T T T 8 T ..2.-.-.-.) T T T T T T T T T T T T $.) >.                              ",
"                                            ..W T T T T 3.2.2.2.2.-.-.-.-.4.4.4.4.4.4.4.4.4.) >.                                ",
"                                              ..5.5.5.5.d 2.2.2.2.2.2.2.2.2.2.2.2.2.2.2.2.2.2.d                                 ",
"                                                          d 2.2.2.2.d d d d d d 3 2.2.2.2.2.d                                   ",
"                                                          d 2.2.2.d               d 2.2.2..                                     ",
"                                                          d 2.2.d                 d 2.2..                                       ",
"                                                          d 2.2.3                 d 2.2..                                       ",
"                                                          d d .                   . . .                                         ",
"                                                                                                                                ",
"                                                                                                                                ",
"                                                                                                                                ",
"                                                                                                                                ",
"                                                                                                                                ",
"                                                                                                                                ",
"                                                                                                                                ",
"                                                                                                                                "
};
