/* XPM */
static char *ae5496d5e5b5444584c06f8f5e14f47esThFpuOj5487q3Yd[] = {
/* columns rows colors chars-per-pixel */
"58 60 129 2 ",
"   c None",
".  c #4D2712",
"X  c #4E2812",
"o  c #522B14",
"O  c #532F18",
"+  c #5A3117",
"@  c #56321A",
"#  c #5A351D",
"$  c #5E391E",
"%  c #603A1F",
"&  c #5B3720",
"*  c #5E3A21",
"=  c #623D23",
"-  c #644126",
";  c #664529",
":  c #69462A",
">  c #67482B",
",  c #6A4A2D",
"<  c #6C4E31",
"1  c #644F3C",
"2  c #704E31",
"3  c #6E5234",
"4  c #66523F",
"5  c #6C563E",
"6  c #715537",
"7  c #765837",
"8  c #735738",
"9  c #755A3A",
"0  c #795E3E",
"q  c #7A603F",
"w  c #675240",
"e  c #695642",
"r  c #6C5A46",
"t  c #6D5C48",
"y  c #715C45",
"u  c #7A5F40",
"i  c #715E48",
"p  c #7D6241",
"a  c #74624C",
"s  c #756551",
"d  c #786751",
"f  c #7B6A55",
"g  c #7F6E59",
"h  c #7F6F5A",
"j  c #7D6D5A",
"k  c #7F705B",
"l  c #7F7262",
"z  c #806544",
"x  c #806445",
"c  c #806545",
"v  c #816645",
"b  c #806546",
"n  c #826746",
"m  c #836847",
"M  c #826947",
"N  c #836947",
"B  c #826848",
"V  c #836848",
"C  c #83694A",
"Z  c #84694A",
"A  c #846A4A",
"S  c #866B4A",
"D  c #866B4B",
"F  c #876B4B",
"G  c #876C4B",
"H  c #846B4D",
"J  c #876E4D",
"K  c #856C4E",
"L  c #866C4E",
"P  c #866D4F",
"I  c #876E4F",
"U  c #876F4F",
"Y  c #846B4A",
"T  c #886C4C",
"R  c #886E4D",
"E  c #886E4E",
"W  c #886F4E",
"Q  c #896F4F",
"!  c #8A714E",
"~  c #8A704F",
"^  c #8A714F",
"/  c #8B714F",
"(  c #866E50",
")  c #876E50",
"_  c #886F51",
"`  c #8B7353",
"'  c #8D7453",
"]  c #8E7653",
"[  c #8A7254",
"{  c #8B7254",
"}  c #8B7455",
"|  c #8C7455",
" . c #8D7455",
".. c #8D7556",
"X. c #8E7556",
"o. c #8E7656",
"O. c #81705B",
"+. c #81715B",
"@. c #81715C",
"#. c #81715D",
"$. c #907756",
"%. c #907857",
"&. c #917858",
"*. c #917958",
"=. c #937B5C",
"-. c #937C5C",
";. c #947C5C",
":. c #967D5F",
">. c #947E5E",
",. c #957E5E",
"<. c #957E5F",
"1. c #857561",
"2. c #867661",
"3. c #847562",
"4. c #867966",
"5. c #897B67",
"6. c #8E7F6A",
"7. c #8C7F6C",
"8. c #977F61",
"9. c #8E806C",
"0. c #988162",
"q. c #998263",
"w. c #9A8364",
"e. c #9B8466",
"r. c #9B8566",
"t. c #9B8567",
"y. c #928371",
"u. c #938472",
"i. c #948675",
/* pixels */
"                                                                                                                    ",
"                                                                                                                    ",
"                                                                                                                    ",
"                                                                                                                    ",
"                                              , , , , < = < 2 < < <                                                 ",
"                                      : , : = ~ ~ ~ R G + G G A A A # - - -                                         ",
"                                  , : $.%.*.% ~ ~ ~ R A + G A A A A # 0 0 0 = -                                     ",
"                              = % ` ' ' $.*.% q.w.q.:.-.$ :.:.:.:.X.# 0 0 0 0 9 # *                                 ",
"                            : V % R r.r.r.r.% 9 9 9 9 v % 0 0 0 0 p # X.X.X.X.8 = 6 *                               ",
"                          , R J = 8.9 R p p = p p 9 9 p % 0 0 p p p - ; ; v u X.= 6 3 *                             ",
"                        : A R :.= 9 9 J p p = p p p 9 p ; 0 0 p p p : ; V p p p - _ 6 6 #                           ",
"                        : A =.0 = 7 J v p p ; p p p p p ; 0 p p p q , V p p p q ; p J 6 #                           ",
"                      - u { 9 0 = 7 R v v v ; p p p p p : 0 p p p q , p p p p p , 0 q J 6 #                         ",
"                      ; } 9 9 0 - V p p p v , p p p p p : q p p p p , p p p p u , q q q H #                         ",
"                    ; u { 9 9 9 , p v v v p , p p p p v : q p p p p , p p p p p < q 0 0 ) < #                       ",
"                    - ) 9 9 9 9 , p p v v p , p p p p v ; p p p p p , p u p p p 3 q q 0 0 { @                       ",
"                    ; J 9 9 9 9 , p p p v p , p p p p v ; v p p p p , p p p p p 3 q 0 0 0 { @                       ",
"                    $ 9 9 9 9 9 , p p p - p , u u u u p , m p p p p , p = p p p < q 0 0 0 0 o                       ",
"                    # $ $ $ = = = = = = u.: , u u u u p , m p p p p , = y.= = = = * $ $ # # o                       ",
"                    @ f f @.+.+.2.2.2.2.f 6.- u u u u p , m p p p p = y.d 2.2.j j j j k f f o                       ",
"                    @ y y a a a f f f f f f 6.- 0 0 0 p , V p p p = y.d d d d a a a a a r r o                       ",
"                    @ y y a a a f f f f f f O 0 0 0 0 p : V p p p p O d d d s a a a a a r r o                       ",
"                    @ o o O O O O O O O f O 3 0 0 0 0 p : V p p p p , O d O O o o o o o o o o                       ",
"                    @ ; - - ; , * , , , O < 3 0 0 0 0 p : V p p p p , , O , , , , , , , > > o                       ",
"                    O 8 9 9 9 9 * u p p , < < 0 0 0 0 p : A p p p p , q , u u u 3 8 9 8 8 8 o                       ",
"                    O 8 8 9 9 9 - p u p u < < 0 u u 0 p ; J p p p p , p 0 0 0 0 3 8 8 8 8 8 o                       ",
"                    O 8 8 8 9 9 , p 0 0 0 , < 0 0 0 0 p ; J p p p p , p 0 0 0 0 3 8 8 8 8 8 o                       ",
"                    O 8 8 8 8 8 , p 0 0 0 , < 0 0 0 0 p ; J p p p p , p 0 0 0 0 3 8 8 8 8 8 o                       ",
"                    o 8 8 8 8 8 , p 0 0 0 0 < 9 0 0 0 p ; J p p p q , p 0 0 0 0 3 6 6 6 6 6 o                       ",
"                    o 6 8 8 8 8 , p 9 9 9 9 < 9 9 9 9 p ; H q q p p < p 0 0 0 0 < 6 6 6 6 6 o                       ",
"                    o 6 8 8 8 8 , p 9 9 9 9 < 9 9 9 # = = = * q q q 3 p 0 0 0 0 < 6 6 6 6 6 o                       ",
"                    o 6 6 6 6 8 , p 9 9 9 9 < 9 9 $ 9.6.6.6.5.$ 0 0 3 p 0 0 0 0 < 6 6 3 3 3 o                       ",
"                    o 6 6 6 6 6 < u 9 8 8 8 < 9 9 $ a a a a a $ 0 0 3 p 9 0 9 9 > 3 3 3 3 3 o                       ",
"                    o 6 6 6 6 6 , u 6 8 8 8 < 9 9 # a a o a a $ 9 0 < p 9 9 9 9 ; 3 3 3 3 3 o                       ",
"                    o 6 6 6 6 6 , u 6 6 6 8 < 9 9 o i i o i i o 9 8 < p 9 9 9 9 ; 3 3 3 3 3 o                       ",
"                    o 6 6 6 6 6 , u 6 6 6 6 , 8 9 o 5 5 5 5 5 o 9 9 , p 9 9 9 9 ; 3 3 3 3 3 o                       ",
"                    X 6 6 6 6 6 , p 6 6 * 6 , 8 8 , o o o o X > 9 9 , 0 = 9 9 9 ; 3 3 3 3 3 X                       ",
"                    X @ @ # # # $ * * * 9.* , 8 8 8 , , # , > 8 8 8 < = 7.* * & $ # # # @ @ X                       ",
"                    X d d j f f 2.2.2.2.s 5.* 8 8 8 8 8 - 0 9 8 8 9 = 7.a @.@.f f f f f d d X                       ",
"                    X e e i i i a a a s d d 5.* 6 8 8 8 - 8 8 8 9 = 7.a a a a t t t t t 5 5 X                       ",
"                    X e e t i i a s s s d d o 8 6 8 8 8 - 8 8 8 8 6 o a a a a t t t t t 5 5 X                       ",
"                    X X X X o o o o o o s o - 8 6 6 8 8 - 6 8 6 6 6 - o t X X X X X X X X X X                       ",
"                    X = = - ; ; # > , , o ; - 6 6 6 6 8 - 6 6 3 6 3 - , X ; ; ; = ; - = = = .                       ",
"                    X 3 3 3 3 3 # 3 3 3 > 6 - 6 6 6 6 6 * 6 3 3 3 3 - 9 ; 9 9 9 = < < < < < .                       ",
"                    X 3 3 3 3 3 * 3 3 3 3 6 = 6 6 6 6 6 # 3 3 3 3 3 = 9 9 9 9 9 * < < < < < .                       ",
"                    X 3 3 3 3 3 * 3 3 3 3 3 * 6 6 6 6 6 O 3 3 3 3 3 * 9 9 9 9 9 * < < < < < .                       ",
"                    X O # # * * * & & & # # @ @ @ O o X o o O @ @ # # # # # # # @ @ @ O . . .                       ",
"                    X a a a a a s s s d f f f f f f j l X 3.3.j j f f f d s s s s s s s s s .                       ",
"                    X 3.4.4.4.4.4.4.4.4.4.7.7.7.7.7.i.i.X i.i.7.7.7.7.4.4.4.4.4.4.4.4.4.4.4..                       ",
"                    X 4 4 4 4 w w w w r r r r r r t t s X s t t t t r r r r e e e 1 4 4 1 1 .                       ",
"                    X 4 4 4 4 4 4 w e r r r r r r t t s X s t t t r r r r r e e e 1 1 1 1 1 .                       ",
"                    X 1 1 1 4 e e e e r r r r r r t t s X s t t t t r r e e e e e e e 1 1 1 .                       ",
"                    X 1 1 1 e e e e e r r r r r r t t s X s t t t t t r r e e e e e e e 1 1 .                       ",
"                    . . X X X X X X X X X X X X X X X X X X X X X X X X . . . . . . . . . . .                       ",
"                                                                                                                    ",
"                                                                                                                    ",
"                                                                                                                    ",
"                                                                                                                    ",
"                                                                                                                    ",
"                                                                                                                    "
};
