/* XPM */
static char *_3cdc07307f0467191b5e7da1b9e9e46[] = {
/* columns rows colors chars-per-pixel */
"32 32 2 1 ",
"  c None",
". c #FBF8F8",
/* pixels */
"................................",
".                              .",
".                              .",
".                              .",
".                              .",
".                              .",
".                              .",
".  ..... .   .   .  .......    .",
".  .     .   .   .     .       .",
".  .      . .    .     .       .",
".  .      . .    .     .       .",
".  .      . .    .     .       .",
".  .       .     .     .       .",
".  .....   .     .     .       .",
".  .       .     .     .       .",
".  .      . .    .     .       .",
".  .      . .    .     .       .",
".  .      . .    .     .       .",
".  .     .   .   .     .       .",
".  ..... .   .   .     .       .",
".                              .",
".                              .",
".                              .",
".                              .",
".                              .",
".                              .",
".                              .",
".                              .",
".                              .",
".                              .",
".                              .",
"................................"
};
