/* XPM */
static char *_21d229275f24711bbe5c834a8bee50e[] = {
/* columns rows colors chars-per-pixel */
"8 94 45 1 ",
"  c #56341E",
". c None",
"X c #583724",
"o c #94928B",
"O c #868579",
"+ c #56341F",
"@ c #79766B",
"# c #918F87",
"$ c #8F8E85",
"% c #6B6256",
"& c #654935",
"* c #573723",
"= c #908E85",
"- c #908E86",
"; c #908F86",
": c #918F86",
"> c #56341E",
", c #573521",
"< c #583824",
"1 c #56351F",
"2 c #573722",
"3 c #583622",
"4 c #55321C",
"5 c #55341E",
"6 c #6F6050",
"7 c #6C5847",
"8 c #6D5A4B",
"9 c #736E63",
"0 c #747064",
"q c #746F63",
"w c #736E62",
"e c #746F64",
"r c #8F8D85",
"t c #8F8D84",
"y c #8E8D83",
"u c #8E8D84",
"i c #6B5F51",
"p c #777165",
"a c #797468",
"s c #919088",
"d c #624430",
"f c #573621",
"g c #583621",
"h c #563520",
"j c black",
/* pixels */
"XoOOOOO+",
"XoOOOOO+",
"XoOOOOO+",
"XoOOOOO+",
"XoOOOOO+",
"XoOOOOO+",
"XoOOOOO+",
"XoOOOOO+",
"X@#OOOO+",
"X@@$$OO+",
"X@%%%$$+",
"X%%++&&+",
"*++OOOO+",
"XoOOOOO+",
"XoOOOOO+",
"XoOOOOO+",
"XoOOOOO+",
"XoOOOOO+",
"XoOOOOO+",
"XoOOOOO+",
"XoOOOOO+",
"XoOOOOO+",
"XoOOOOO+",
"XoOOOOO+",
"XoOOOOO+",
"XoOOOOO+",
"Xo=-;:->",
"X,&&&&> ",
"<oOOOOO1",
"<oOOOOO2",
"3oOOOOO4",
"+oOOOOO5",
"XoOOOOO+",
"XoOOOOO+",
"XoOOOOO+",
"XoOOOOO+",
"XoOOOOO+",
"XoOOOOO+",
"XoOOOOO+",
"XoOOOOO+",
"XoOOOOo+",
"XoOOoo6+",
"Xooo789+",
"X,&&0qw+",
"XoOO+e%+",
"XoOOO+%+",
"XoOOO+%+",
"XoOOOO++",
"XoOOOOO+",
"XoOOOOO+",
"XoOOOOO+",
"XoOOOOO+",
"XoOOOOO+",
"XoOOOOO+",
"XoOOOOO+",
"XoOOOOO+",
"XoOOOOO+",
"XoOOOOO+",
"Xo=rttr>",
"X,&&&&> ",
"<oOOOOO1",
"<oOOOOO2",
"3oOOOOO4",
"+oOOOOO5",
"XoOOOOO+",
"XoOOOOO+",
"XoOOOOO+",
"XoOOOOO+",
"XoOOOOO+",
"XoOOOOO+",
"XoOOOOO+",
"XoOOOOO+",
"XoOOOOO+",
"XoOOOOO+",
"Xoyttru+",
"X,&&&&>+",
"XoOOOOO+",
"XoOOOOO+",
"XoOOOOO+",
"XoOOOOO+",
"XoOOOOO+",
"XoOOOOO+",
"XoOOOOO+",
"XoOOOOO+",
"XioOOOO+",
"XpoOOOO+",
"XpoOOOa+",
"XpioO%r+",
"Xppi%-O+",
"XppisOO+",
"XpiitOO>",
"Xiii&&d.",
">ffgooo>",
"<oooOOOh"
};
